<svg width="1258" height="289" viewBox="0 0 1258 289" fill="none" xmlns="http://www.w3.org/2000/svg">
<path d="M62.1361 20.5654L0.211426 160.646L174.375 285.163L205.337 71.1502L62.1361 20.5654Z" fill="#0E73F6"/>
<mask id="path-2-inside-1_4423_28330" fill="white">
<path d="M174.374 285.163L205.337 71.1502L62.1357 20.5654"/>
</mask>
<path d="M174.374 285.163L205.337 71.1502L62.1357 20.5654" fill="white"/>
<path d="M205.337 71.1502L214.539 72.4816L215.632 64.9258L208.434 62.383L205.337 71.1502ZM183.577 286.494L214.539 72.4816L196.134 69.8189L165.172 283.831L183.577 286.494ZM208.434 62.383L65.2327 11.7982L59.0388 29.3326L202.24 79.9174L208.434 62.383Z" fill="#0E73F6" mask="url(#path-2-inside-1_4423_28330)"/>
<path d="M364.214 224.121V200.69L361.983 195.557V153.604C361.983 146.165 359.677 140.363 355.065 136.198C350.602 132.032 343.684 129.95 334.311 129.95C327.914 129.95 321.592 130.991 315.343 133.074C309.244 135.008 304.037 137.686 299.722 141.107L287.226 116.783C293.772 112.172 301.656 108.601 310.88 106.072C320.104 103.543 329.476 102.278 338.998 102.278C357.296 102.278 371.504 106.593 381.62 115.221C391.736 123.85 396.795 137.314 396.795 155.612V224.121H364.214ZM327.617 225.906C318.244 225.906 310.211 224.344 303.516 221.22C296.821 217.947 291.689 213.558 288.118 208.054C284.548 202.549 282.763 196.375 282.763 189.532C282.763 182.391 284.473 176.143 287.895 170.787C291.466 165.431 297.044 161.266 304.632 158.29C312.219 155.166 322.112 153.604 334.311 153.604H366.222V173.911H338.105C329.923 173.911 324.269 175.25 321.145 177.928C318.17 180.606 316.682 183.953 316.682 187.97C316.682 192.433 318.393 196.003 321.815 198.681C325.385 201.21 330.22 202.475 336.32 202.475C342.122 202.475 347.329 201.136 351.941 198.458C356.552 195.631 359.9 191.54 361.983 186.185L367.338 202.252C364.809 209.988 360.197 215.864 353.503 219.881C346.808 223.898 338.179 225.906 327.617 225.906ZM465.345 225.906C455.08 225.906 445.187 224.716 435.665 222.336C426.293 219.807 418.854 216.682 413.35 212.963L424.954 187.97C430.458 191.391 436.93 194.218 444.368 196.45C451.956 198.532 459.394 199.574 466.684 199.574C474.717 199.574 480.371 198.607 483.644 196.673C487.065 194.739 488.776 192.061 488.776 188.639C488.776 185.813 487.437 183.73 484.759 182.391C482.23 180.903 478.809 179.787 474.494 179.044C470.18 178.3 465.419 177.556 460.212 176.812C455.154 176.068 450.022 175.101 444.815 173.911C439.608 172.572 434.847 170.638 430.533 168.109C426.219 165.58 422.722 162.158 420.045 157.844C417.515 153.53 416.251 147.951 416.251 141.107C416.251 133.52 418.408 126.825 422.722 121.023C427.186 115.221 433.583 110.684 441.914 107.411C450.245 103.989 460.212 102.278 471.816 102.278C479.999 102.278 488.33 103.171 496.81 104.956C505.29 106.741 512.356 109.345 518.009 112.767L506.405 137.537C500.603 134.115 494.727 131.809 488.776 130.619C482.974 129.28 477.321 128.611 471.816 128.611C464.08 128.611 458.427 129.652 454.857 131.735C451.286 133.818 449.501 136.495 449.501 139.768C449.501 142.744 450.766 144.975 453.295 146.463C455.972 147.951 459.469 149.141 463.783 150.033C468.097 150.926 472.783 151.744 477.842 152.488C483.049 153.083 488.256 154.05 493.462 155.389C498.669 156.728 503.356 158.662 507.521 161.191C511.836 163.572 515.332 166.919 518.009 171.233C520.687 175.399 522.026 180.903 522.026 187.747C522.026 195.185 519.795 201.805 515.332 207.607C510.869 213.261 504.397 217.724 495.917 220.997C487.586 224.27 477.395 225.906 465.345 225.906ZM589.252 225.906C575.119 225.906 564.11 222.336 556.225 215.195C548.34 207.905 544.398 197.119 544.398 182.837V77.5082H579.21V182.391C579.21 187.449 580.549 191.391 583.226 194.218C585.904 196.896 589.549 198.235 594.161 198.235C599.666 198.235 604.352 196.747 608.22 193.772L617.592 218.319C614.022 220.848 609.707 222.782 604.649 224.121C599.74 225.311 594.607 225.906 589.252 225.906ZM525.876 133.52V106.741H609.112V133.52H525.876ZM633.787 224.121V104.064H667.037V137.983L662.35 128.164C665.921 119.684 671.649 113.287 679.533 108.973C687.418 104.51 697.014 102.278 708.32 102.278V134.413C706.833 134.264 705.494 134.189 704.304 134.189C703.113 134.041 701.849 133.966 700.51 133.966C690.989 133.966 683.253 136.719 677.302 142.223C671.5 147.579 668.599 155.984 668.599 167.44V224.121H633.787ZM781.928 225.906C769.134 225.906 757.753 223.228 747.786 217.873C737.967 212.517 730.156 205.227 724.354 196.003C718.701 186.631 715.875 175.994 715.875 164.092C715.875 152.042 718.701 141.405 724.354 132.181C730.156 122.809 737.967 115.519 747.786 110.312C757.753 104.956 769.134 102.278 781.928 102.278C794.574 102.278 805.88 104.956 815.848 110.312C825.815 115.519 833.626 122.734 839.279 131.958C844.932 141.182 847.759 151.893 847.759 164.092C847.759 175.994 844.932 186.631 839.279 196.003C833.626 205.227 825.815 212.517 815.848 217.873C805.88 223.228 794.574 225.906 781.928 225.906ZM781.928 197.342C787.73 197.342 792.937 196.003 797.549 193.325C802.161 190.648 805.806 186.854 808.484 181.945C811.162 176.886 812.5 170.936 812.5 164.092C812.5 157.1 811.162 151.149 808.484 146.24C805.806 141.33 802.161 137.537 797.549 134.859C792.937 132.181 787.73 130.842 781.928 130.842C776.126 130.842 770.919 132.181 766.307 134.859C761.696 137.537 757.976 141.33 755.15 146.24C752.472 151.149 751.133 157.1 751.133 164.092C751.133 170.936 752.472 176.886 755.15 181.945C757.976 186.854 761.696 190.648 766.307 193.325C770.919 196.003 776.126 197.342 781.928 197.342ZM886.203 193.772L886.649 173.465L959.62 106.965H979.035L927.486 156.282L918.56 163.869L886.203 193.772ZM873.706 224.121V58.54H889.55V224.121H873.706ZM964.53 224.121L915.659 163.2L925.924 150.926L983.944 224.121H964.53ZM1004.38 224.121V106.965H1020.23V224.121H1004.38ZM1012.42 81.0787C1009.14 81.0787 1006.39 79.9629 1004.16 77.7314C1001.93 75.4998 1000.81 72.822 1000.81 69.6978C1000.81 66.5736 1001.93 63.9701 1004.16 61.8874C1006.39 59.6558 1009.14 58.54 1012.42 58.54C1015.69 58.54 1018.44 59.5814 1020.67 61.6642C1022.9 63.747 1024.02 66.3505 1024.02 69.4746C1024.02 72.7476 1022.9 75.4998 1020.67 77.7314C1018.59 79.9629 1015.84 81.0787 1012.42 81.0787ZM1098.01 225.237C1087 225.237 1078.52 222.261 1072.57 216.31C1066.62 210.36 1063.64 201.954 1063.64 191.094V81.0787H1079.49V190.201C1079.49 197.045 1081.2 202.326 1084.62 206.045C1088.19 209.765 1093.25 211.624 1099.79 211.624C1106.79 211.624 1112.59 209.616 1117.2 205.599L1122.78 216.98C1119.65 219.807 1115.86 221.889 1111.4 223.228C1107.08 224.567 1102.62 225.237 1098.01 225.237ZM1042.67 120.131V106.965H1115.19V120.131H1042.67ZM1193.9 225.237C1181.7 225.237 1170.99 222.708 1161.76 217.649C1152.54 212.442 1145.32 205.376 1140.12 196.45C1134.91 187.375 1132.31 177.035 1132.31 165.431C1132.31 153.827 1134.76 143.562 1139.67 134.636C1144.73 125.71 1151.57 118.717 1160.2 113.659C1168.98 108.452 1178.8 105.849 1189.66 105.849C1200.67 105.849 1210.41 108.378 1218.89 113.436C1227.52 118.346 1234.29 125.338 1239.2 134.413C1244.11 143.339 1246.56 153.678 1246.56 165.431C1246.56 166.175 1246.49 166.993 1246.34 167.886C1246.34 168.63 1246.34 169.448 1246.34 170.341H1144.36V158.513H1237.86L1231.61 163.2C1231.61 154.72 1229.75 147.207 1226.03 140.661C1222.46 133.966 1217.55 128.759 1211.3 125.04C1205.05 121.321 1197.84 119.461 1189.66 119.461C1181.62 119.461 1174.41 121.321 1168.01 125.04C1161.61 128.759 1156.63 133.966 1153.06 140.661C1149.49 147.356 1147.7 155.017 1147.7 163.646V166.101C1147.7 175.027 1149.64 182.912 1153.51 189.755C1157.52 196.45 1163.03 201.731 1170.02 205.599C1177.16 209.318 1185.27 211.178 1194.34 211.178C1201.48 211.178 1208.1 209.913 1214.2 207.384C1220.45 204.855 1225.81 200.987 1230.27 195.78L1239.2 206.045C1233.99 212.294 1227.44 217.054 1219.56 220.327C1211.82 223.6 1203.27 225.237 1193.9 225.237Z" fill="black"/>
</svg>
