<svg width="1315" height="289" viewBox="0 0 1315 289" fill="none" xmlns="http://www.w3.org/2000/svg">
<path d="M169.636 274.55L7.46221 158.606L65.1657 28.0736L198.482 75.1668L169.636 274.55Z" fill="#0E73F6" stroke="white" stroke-width="12"/>
<path d="M174.163 285.163L205.125 71.1502L61.9246 20.5654" fill="white"/>
<path d="M272.286 224.121L341.91 67.9124H377.615L447.462 224.121H409.526L352.399 86.2111H366.68L309.33 224.121H272.286ZM307.098 190.648L316.694 163.199H397.03L406.848 190.648H307.098ZM498.258 225.906C487.993 225.906 478.1 224.716 468.579 222.335C459.206 219.806 451.768 216.682 446.263 212.963L457.867 187.97C463.372 191.391 469.843 194.218 477.282 196.45C484.869 198.532 492.307 199.574 499.597 199.574C507.631 199.574 513.284 198.607 516.557 196.673C519.978 194.739 521.689 192.061 521.689 188.639C521.689 185.813 520.35 183.73 517.673 182.391C515.143 180.903 511.722 179.787 507.407 179.043C503.093 178.3 498.332 177.556 493.126 176.812C488.067 176.068 482.935 175.101 477.728 173.911C472.521 172.572 467.76 170.638 463.446 168.109C459.132 165.58 455.636 162.158 452.958 157.844C450.429 153.529 449.164 147.951 449.164 141.107C449.164 133.52 451.321 126.825 455.636 121.023C460.099 115.221 466.496 110.684 474.827 107.411C483.158 103.989 493.126 102.278 504.73 102.278C512.912 102.278 521.243 103.171 529.723 104.956C538.203 106.741 545.269 109.345 550.923 112.767L539.319 137.537C533.517 134.115 527.64 131.809 521.689 130.619C515.887 129.28 510.234 128.611 504.73 128.611C496.994 128.611 491.34 129.652 487.77 131.735C484.199 133.817 482.414 136.495 482.414 139.768C482.414 142.744 483.679 144.975 486.208 146.463C488.886 147.951 492.382 149.141 496.696 150.033C501.01 150.926 505.697 151.744 510.755 152.488C515.962 153.083 521.169 154.05 526.376 155.389C531.583 156.728 536.269 158.662 540.434 161.191C544.749 163.571 548.245 166.919 550.923 171.233C553.6 175.399 554.939 180.903 554.939 187.747C554.939 195.185 552.708 201.805 548.245 207.607C543.782 213.261 537.31 217.724 528.83 220.997C520.499 224.269 510.308 225.906 498.258 225.906ZM622.165 225.906C608.032 225.906 597.023 222.335 589.138 215.195C581.253 207.905 577.311 197.119 577.311 182.837V77.5081H612.123V182.391C612.123 187.449 613.462 191.391 616.14 194.218C618.817 196.896 622.462 198.235 627.074 198.235C632.579 198.235 637.265 196.747 641.133 193.772L650.505 218.319C646.935 220.848 642.621 222.782 637.562 224.121C632.653 225.311 627.52 225.906 622.165 225.906ZM558.789 133.52V106.741H642.026V133.52H558.789ZM666.7 224.121V104.063H699.95V137.983L695.264 128.164C698.834 119.684 704.562 113.287 712.447 108.973C720.331 104.51 729.927 102.278 741.233 102.278V134.413C739.746 134.264 738.407 134.189 737.217 134.189C736.027 134.041 734.762 133.966 733.423 133.966C723.902 133.966 716.166 136.718 710.215 142.223C704.413 147.579 701.512 155.984 701.512 167.439V224.121H666.7ZM814.841 225.906C802.047 225.906 790.666 223.228 780.699 217.872C770.88 212.517 763.07 205.227 757.267 196.003C751.614 186.631 748.788 175.994 748.788 164.092C748.788 152.042 751.614 141.405 757.267 132.181C763.07 122.808 770.88 115.519 780.699 110.312C790.666 104.956 802.047 102.278 814.841 102.278C827.487 102.278 838.793 104.956 848.761 110.312C858.729 115.519 866.539 122.734 872.192 131.958C877.845 141.182 880.672 151.893 880.672 164.092C880.672 175.994 877.845 186.631 872.192 196.003C866.539 205.227 858.729 212.517 848.761 217.872C838.793 223.228 827.487 225.906 814.841 225.906ZM814.841 197.342C820.643 197.342 825.85 196.003 830.462 193.325C835.074 190.648 838.719 186.854 841.397 181.944C844.075 176.886 845.414 170.936 845.414 164.092C845.414 157.1 844.075 151.149 841.397 146.24C838.719 141.33 835.074 137.537 830.462 134.859C825.85 132.181 820.643 130.842 814.841 130.842C809.039 130.842 803.832 132.181 799.221 134.859C794.609 137.537 790.889 141.33 788.063 146.24C785.385 151.149 784.046 157.1 784.046 164.092C784.046 170.936 785.385 176.886 788.063 181.944C790.889 186.854 794.609 190.648 799.221 193.325C803.832 196.003 809.039 197.342 814.841 197.342ZM924.248 185.292L923.579 165.208L1018.2 67.9124H1037.16L968.21 140.215L958.837 150.257L924.248 185.292ZM909.966 224.121V67.9124H926.48V224.121H909.966ZM1022.21 224.121L954.82 146.463L965.978 134.413L1041.85 224.121H1022.21ZM1061.92 224.121V106.964H1077.76V224.121H1061.92ZM1069.95 81.0786C1066.68 81.0786 1063.93 79.9628 1061.7 77.7312C1059.47 75.4997 1058.35 72.8218 1058.35 69.6977C1058.35 66.5735 1059.47 63.97 1061.7 61.8872C1063.93 59.6557 1066.68 58.5399 1069.95 58.5399C1073.23 58.5399 1075.98 59.5813 1078.21 61.6641C1080.44 63.7469 1081.56 66.3503 1081.56 69.4745C1081.56 72.7474 1080.44 75.4997 1078.21 77.7312C1076.13 79.9628 1073.38 81.0786 1069.95 81.0786ZM1155.55 225.237C1144.54 225.237 1136.06 222.261 1130.11 216.31C1124.16 210.36 1121.18 201.954 1121.18 191.094V81.0786H1137.02V190.201C1137.02 197.045 1138.74 202.326 1142.16 206.045C1145.73 209.764 1150.79 211.624 1157.33 211.624C1164.32 211.624 1170.13 209.616 1174.74 205.599L1180.32 216.98C1177.19 219.806 1173.4 221.889 1168.94 223.228C1164.62 224.567 1160.16 225.237 1155.55 225.237ZM1100.2 120.131V106.964H1172.73V120.131H1100.2ZM1251.43 225.237C1239.24 225.237 1228.52 222.707 1219.3 217.649C1210.08 212.442 1202.86 205.376 1197.65 196.45C1192.45 187.375 1189.84 177.035 1189.84 165.431C1189.84 153.827 1192.3 143.562 1197.21 134.636C1202.27 125.709 1209.11 118.717 1217.74 113.659C1226.52 108.452 1236.33 105.849 1247.19 105.849C1258.2 105.849 1267.95 108.378 1276.43 113.436C1285.06 118.345 1291.83 125.338 1296.74 134.413C1301.64 143.339 1304.1 153.678 1304.1 165.431C1304.1 166.175 1304.02 166.993 1303.88 167.886C1303.88 168.63 1303.88 169.448 1303.88 170.34H1201.89V158.513H1295.4L1289.15 163.199C1289.15 154.72 1287.29 147.207 1283.57 140.661C1280 133.966 1275.09 128.759 1268.84 125.04C1262.59 121.321 1255.38 119.461 1247.19 119.461C1239.16 119.461 1231.95 121.321 1225.55 125.04C1219.15 128.759 1214.17 133.966 1210.6 140.661C1207.03 147.356 1205.24 155.017 1205.24 163.646V166.1C1205.24 175.027 1207.18 182.911 1211.04 189.755C1215.06 196.45 1220.57 201.731 1227.56 205.599C1234.7 209.318 1242.81 211.178 1251.88 211.178C1259.02 211.178 1265.64 209.913 1271.74 207.384C1277.99 204.855 1283.35 200.987 1287.81 195.78L1296.74 206.045C1291.53 212.294 1284.98 217.054 1277.1 220.327C1269.36 223.6 1260.81 225.237 1251.43 225.237Z" fill="white"/>
</svg>
