<svg width="1315" height="289" viewBox="0 0 1315 289" fill="none" xmlns="http://www.w3.org/2000/svg">
<path d="M62.2416 21.222L0.316895 161.303L174.48 285.819L205.442 71.8068L62.2416 21.222Z" fill="#0E73F6"/>
<mask id="path-2-inside-1_4423_28335" fill="white">
<path d="M174.48 285.819L205.443 71.8068L62.2417 21.222"/>
</mask>
<path d="M174.48 285.819L205.443 71.8068L62.2417 21.222" fill="white"/>
<path d="M205.443 71.8068L214.645 73.1382L215.738 65.5825L208.539 63.0396L205.443 71.8068ZM183.682 287.151L214.645 73.1382L196.24 70.4755L165.278 284.488L183.682 287.151ZM208.539 63.0396L65.3387 12.4548L59.1447 29.9892L202.346 80.574L208.539 63.0396Z" fill="#0E73F6" mask="url(#path-2-inside-1_4423_28335)"/>
<path d="M272.603 224.777L342.227 68.5689H377.932L447.779 224.777H409.843L352.715 86.8676H366.997L309.647 224.777H272.603ZM307.415 191.304L317.011 163.856H397.346L407.165 191.304H307.415ZM498.575 226.562C488.31 226.562 478.417 225.372 468.895 222.992C459.523 220.463 452.084 217.339 446.58 213.619L458.184 188.626C463.688 192.048 470.16 194.874 477.598 197.106C485.186 199.189 492.624 200.23 499.914 200.23C507.947 200.23 513.601 199.263 516.874 197.329C520.295 195.395 522.006 192.717 522.006 189.296C522.006 186.469 520.667 184.386 517.989 183.047C515.46 181.56 512.039 180.444 507.724 179.7C503.41 178.956 498.649 178.212 493.442 177.468C488.384 176.725 483.252 175.758 478.045 174.567C472.838 173.228 468.077 171.294 463.763 168.765C459.449 166.236 455.952 162.815 453.275 158.5C450.745 154.186 449.481 148.607 449.481 141.764C449.481 134.176 451.638 127.482 455.952 121.68C460.416 115.878 466.813 111.34 475.144 108.067C483.475 104.646 493.442 102.935 505.046 102.935C513.229 102.935 521.56 103.827 530.04 105.613C538.52 107.398 545.586 110.001 551.239 113.423L539.635 138.193C533.833 134.771 527.957 132.466 522.006 131.275C516.204 129.936 510.551 129.267 505.046 129.267C497.31 129.267 491.657 130.308 488.087 132.391C484.516 134.474 482.731 137.152 482.731 140.425C482.731 143.4 483.996 145.632 486.525 147.119C489.202 148.607 492.699 149.797 497.013 150.69C501.327 151.582 506.013 152.401 511.072 153.145C516.279 153.74 521.486 154.707 526.692 156.046C531.899 157.384 536.586 159.319 540.751 161.848C545.066 164.228 548.562 167.575 551.239 171.89C553.917 176.055 555.256 181.56 555.256 188.403C555.256 195.841 553.025 202.462 548.562 208.264C544.099 213.917 537.627 218.38 529.147 221.653C520.816 224.926 510.625 226.562 498.575 226.562ZM622.482 226.562C608.349 226.562 597.34 222.992 589.455 215.851C581.57 208.561 577.628 197.776 577.628 183.494V78.1646H612.44V183.047C612.44 188.105 613.779 192.048 616.456 194.874C619.134 197.552 622.779 198.891 627.391 198.891C632.896 198.891 637.582 197.404 641.45 194.428L650.822 218.975C647.252 221.504 642.937 223.438 637.879 224.777C632.97 225.967 627.837 226.562 622.482 226.562ZM559.106 134.176V107.398H642.342V134.176H559.106ZM667.017 224.777V104.72H700.267V138.64L695.58 128.821C699.151 120.341 704.879 113.944 712.763 109.629C720.648 105.166 730.244 102.935 741.55 102.935V135.069C740.063 134.92 738.724 134.846 737.534 134.846C736.343 134.697 735.079 134.623 733.74 134.623C724.219 134.623 716.483 137.375 710.532 142.879C704.73 148.235 701.829 156.641 701.829 168.096V224.777H667.017ZM815.158 226.562C802.364 226.562 790.983 223.885 781.016 218.529C771.197 213.173 763.386 205.883 757.584 196.66C751.931 187.287 749.105 176.65 749.105 164.749C749.105 152.698 751.931 142.061 757.584 132.837C763.386 123.465 771.197 116.175 781.016 110.968C790.983 105.613 802.364 102.935 815.158 102.935C827.804 102.935 839.11 105.613 849.078 110.968C859.045 116.175 866.856 123.391 872.509 132.614C878.162 141.838 880.989 152.549 880.989 164.749C880.989 176.65 878.162 187.287 872.509 196.66C866.856 205.883 859.045 213.173 849.078 218.529C839.11 223.885 827.804 226.562 815.158 226.562ZM815.158 197.999C820.96 197.999 826.167 196.66 830.779 193.982C835.391 191.304 839.036 187.51 841.714 182.601C844.392 177.543 845.731 171.592 845.731 164.749C845.731 157.756 844.392 151.806 841.714 146.896C839.036 141.987 835.391 138.193 830.779 135.515C826.167 132.837 820.96 131.499 815.158 131.499C809.356 131.499 804.149 132.837 799.537 135.515C794.926 138.193 791.206 141.987 788.38 146.896C785.702 151.806 784.363 157.756 784.363 164.749C784.363 171.592 785.702 177.543 788.38 182.601C791.206 187.51 794.926 191.304 799.537 193.982C804.149 196.66 809.356 197.999 815.158 197.999ZM924.565 185.948L923.896 165.864L1018.51 68.5689H1037.48L968.527 140.871L959.154 150.913L924.565 185.948ZM910.283 224.777V68.5689H926.797V224.777H910.283ZM1022.53 224.777L955.137 147.119L966.295 135.069L1042.17 224.777H1022.53ZM1062.24 224.777V107.621H1078.08V224.777H1062.24ZM1070.27 81.735C1067 81.735 1064.25 80.6193 1062.01 78.3877C1059.78 76.1562 1058.67 73.4783 1058.67 70.3542C1058.67 67.23 1059.78 64.6265 1062.01 62.5437C1064.25 60.3122 1067 59.1964 1070.27 59.1964C1073.54 59.1964 1076.3 60.2378 1078.53 62.3206C1080.76 64.4034 1081.88 67.0068 1081.88 70.131C1081.88 73.4039 1080.76 76.1562 1078.53 78.3877C1076.45 80.6193 1073.69 81.735 1070.27 81.735ZM1155.86 225.893C1144.85 225.893 1136.37 222.918 1130.42 216.967C1124.47 211.016 1121.5 202.611 1121.5 191.75V81.735H1137.34V190.858C1137.34 197.701 1139.05 202.982 1142.47 206.702C1146.04 210.421 1151.1 212.281 1157.65 212.281C1164.64 212.281 1170.44 210.272 1175.05 206.255L1180.63 217.636C1177.51 220.463 1173.72 222.546 1169.25 223.885C1164.94 225.224 1160.48 225.893 1155.86 225.893ZM1100.52 120.787V107.621H1173.05V120.787H1100.52ZM1251.75 225.893C1239.55 225.893 1228.84 223.364 1219.62 218.306C1210.39 213.099 1203.18 206.032 1197.97 197.106C1192.76 188.031 1190.16 177.692 1190.16 166.088C1190.16 154.483 1192.62 144.218 1197.53 135.292C1202.58 126.366 1209.43 119.374 1218.06 114.316C1226.83 109.109 1236.65 106.505 1247.51 106.505C1258.52 106.505 1268.27 109.034 1276.75 114.092C1285.37 119.002 1292.14 125.994 1297.05 135.069C1301.96 143.995 1304.42 154.335 1304.42 166.088C1304.42 166.831 1304.34 167.65 1304.19 168.542C1304.19 169.286 1304.19 170.104 1304.19 170.997H1202.21V159.17H1295.71L1289.46 163.856C1289.46 155.376 1287.61 147.863 1283.89 141.317C1280.32 134.623 1275.41 129.416 1269.16 125.697C1262.91 121.977 1255.69 120.118 1247.51 120.118C1239.48 120.118 1232.26 121.977 1225.87 125.697C1219.47 129.416 1214.48 134.623 1210.91 141.317C1207.34 148.012 1205.56 155.674 1205.56 164.302V166.757C1205.56 175.683 1207.49 183.568 1211.36 190.411C1215.38 197.106 1220.88 202.387 1227.87 206.255C1235.02 209.975 1243.12 211.834 1252.2 211.834C1259.34 211.834 1265.96 210.57 1272.06 208.041C1278.31 205.512 1283.66 201.644 1288.13 196.437L1297.05 206.702C1291.85 212.95 1285.3 217.711 1277.41 220.984C1269.68 224.257 1261.12 225.893 1251.75 225.893Z" fill="black"/>
</svg>
