<svg width="49" height="13" viewBox="0 0 49 13" fill="none" xmlns="http://www.w3.org/2000/svg">
<path d="M15.0012 12.5351C14.1488 12.5351 13.3816 12.3591 12.6997 12.0072C12.0278 11.6452 11.5013 11.1474 11.1202 10.514C10.7392 9.88048 10.5486 9.16152 10.5486 8.3571C10.5486 7.55268 10.7392 6.83372 11.1202 6.20024C11.5013 5.56676 12.0278 5.07405 12.6997 4.72211C13.3816 4.36012 14.1488 4.17913 15.0012 4.17913C15.8536 4.17913 16.6157 4.36012 17.2876 4.72211C17.9595 5.07405 18.486 5.56676 18.867 6.20024C19.2481 6.83372 19.4387 7.55268 19.4387 8.3571C19.4387 9.16152 19.2481 9.88048 18.867 10.514C18.486 11.1474 17.9595 11.6452 17.2876 12.0072C16.6157 12.3591 15.8536 12.5351 15.0012 12.5351ZM15.0012 10.6045C15.6029 10.6045 16.0942 10.4034 16.4753 10.0011C16.8664 9.58887 17.062 9.04086 17.062 8.3571C17.062 7.67334 16.8664 7.13036 16.4753 6.72814C16.0942 6.31588 15.6029 6.10974 15.0012 6.10974C14.3995 6.10974 13.9031 6.31588 13.512 6.72814C13.1209 7.13036 12.9253 7.67334 12.9253 8.3571C12.9253 9.04086 13.1209 9.58887 13.512 10.0011C13.9031 10.4034 14.3995 10.6045 15.0012 10.6045Z" fill="white"/>
<path d="M23.429 12.5351C22.7571 12.5351 22.1003 12.4546 21.4584 12.2937C20.8166 12.1228 20.3052 11.9116 19.9241 11.6603L20.7063 9.97098C21.0673 10.2022 21.5036 10.3933 22.015 10.5441C22.5265 10.6849 23.0279 10.7553 23.5192 10.7553C24.512 10.7553 25.0084 10.5089 25.0084 10.0162C25.0084 9.78495 24.8731 9.61904 24.6023 9.51849C24.3315 9.41793 23.9154 9.33246 23.3538 9.26208C22.6919 9.16152 22.1454 9.04589 21.7142 8.91517C21.2829 8.78445 20.9069 8.55318 20.586 8.22135C20.2751 7.88953 20.1197 7.41693 20.1197 6.80356C20.1197 6.29074 20.2651 5.83825 20.5559 5.44609C20.8567 5.04388 21.288 4.73217 21.8495 4.51095C22.4212 4.28973 23.093 4.17913 23.8652 4.17913C24.4368 4.17913 25.0034 4.24449 25.565 4.3752C26.1366 4.49587 26.6079 4.66681 26.979 4.88802L26.1968 6.56223C25.4848 6.16002 24.7076 5.95891 23.8652 5.95891C23.3638 5.95891 22.9877 6.0293 22.737 6.17007C22.4863 6.31085 22.361 6.49184 22.361 6.71306C22.361 6.96444 22.4964 7.14041 22.7671 7.24096C23.0379 7.34152 23.4691 7.43704 24.0608 7.52754C24.7226 7.63815 25.2642 7.75881 25.6853 7.88953C26.1065 8.01019 26.4726 8.23644 26.7834 8.56826C27.0943 8.90009 27.2497 9.36263 27.2497 9.95589C27.2497 10.4587 27.0993 10.9061 26.7985 11.2983C26.4976 11.6904 26.0564 11.9971 25.4747 12.2183C24.9031 12.4295 24.2212 12.5351 23.429 12.5351Z" fill="white"/>
<path d="M33.6164 12.0223C33.3858 12.1932 33.1 12.3239 32.759 12.4144C32.4281 12.4949 32.0771 12.5351 31.706 12.5351C30.7433 12.5351 29.9962 12.2887 29.4647 11.796C28.9433 11.3033 28.6825 10.5793 28.6825 9.62407L28.6825 6.29074L27.434 6.29074L27.434 4.48078L28.6825 4.48078L28.6825 2.50492L31.0291 2.50492L31.0291 4.48078L33.0448 4.48078L33.0448 6.29074L31.0291 6.29074L31.0291 9.5939C31.0291 9.93578 31.1144 10.2022 31.2849 10.3933C31.4654 10.5743 31.7161 10.6648 32.037 10.6648C32.408 10.6648 32.7239 10.5642 32.9846 10.3631L33.6164 12.0223Z" fill="white"/>
<path d="M42.3104 8.38727C42.3104 8.41743 42.2954 8.62859 42.2653 9.02075L36.1431 9.02075C36.2534 9.52351 36.5141 9.9207 36.9253 10.2123C37.3364 10.5039 37.8479 10.6497 38.4596 10.6497C38.8808 10.6497 39.2518 10.5894 39.5727 10.4687C39.9036 10.338 40.2095 10.1369 40.4903 9.86539L41.7388 11.2229C40.9767 12.0977 39.8635 12.5351 38.3994 12.5351C37.4868 12.5351 36.6796 12.3591 35.9776 12.0072C35.2756 11.6452 34.7341 11.1474 34.353 10.514C33.972 9.88048 33.7814 9.16152 33.7814 8.3571C33.7814 7.56273 33.9669 6.84881 34.338 6.21532C34.7191 5.57178 35.2355 5.07405 35.8873 4.72211C36.5492 4.36012 37.2863 4.17913 38.0986 4.17913C38.8908 4.17913 39.6078 4.35007 40.2496 4.69195C40.8914 5.03383 41.3928 5.52654 41.7539 6.17007C42.1249 6.80356 42.3104 7.54262 42.3104 8.38727ZM38.1136 5.95891C37.5821 5.95891 37.1359 6.10974 36.7748 6.4114C36.4138 6.71306 36.1932 7.12533 36.113 7.6482L40.0992 7.6482C40.019 7.13538 39.7983 6.72814 39.4373 6.42648C39.0763 6.11477 38.6351 5.95891 38.1136 5.95891Z" fill="white"/>
<path d="M45.8132 5.37068C46.094 4.97852 46.47 4.68189 46.9413 4.48078C47.4227 4.27968 47.9743 4.17913 48.596 4.17913L48.596 6.35107C48.3353 6.33096 48.1598 6.3209 48.0695 6.3209C47.3976 6.3209 46.8712 6.51195 46.4901 6.89405C46.109 7.2661 45.9185 7.8292 45.9185 8.58334L45.9185 12.4144L43.5719 12.4144L43.5719 4.29979L45.8132 4.29979L45.8132 5.37068Z" fill="white"/>
<path d="M9.82267 2.68366C8.84793 1.70629 7.55553 1.11247 6.18082 1.01032C4.8061 0.908165 3.44052 1.30449 2.33275 2.12711L3.83887 4.16627C4.45922 3.7056 5.22395 3.48366 5.99379 3.54086C6.76363 3.59806 7.48738 3.93061 8.03323 4.47793L9.82267 2.68366Z" fill="#6E7C87"/>
<path d="M0.0114582 6.47341C0.0541031 5.61866 0.285936 4.78415 0.690143 4.0304C1.09435 3.27664 1.6608 2.62254 2.3484 2.11553L3.84764 4.15978C3.46258 4.4437 3.14537 4.81 2.91901 5.23211C2.69266 5.65421 2.56283 6.12153 2.53895 6.60019L0.0114582 6.47341Z" fill="white"/>
<path d="M9.82267 10.8394C9.00077 11.6636 7.94913 12.2186 6.80634 12.4315C5.66355 12.6444 4.48325 12.5051 3.42099 12.032C2.35873 11.5589 1.46435 10.7742 0.855737 9.78122C0.247122 8.78828 -0.0471712 7.63374 0.011642 6.46975L2.53905 6.59814C2.50612 7.24997 2.67092 7.89652 3.01175 8.45256C3.35257 9.00861 3.85342 9.44806 4.44829 9.71301C5.04316 9.97795 5.70412 10.056 6.34408 9.93674C6.98405 9.81752 7.57297 9.50668 8.03323 9.04517L9.82267 10.8394Z" fill="#38D9B9"/>
</svg>
